<svg width="2000" height="2000" viewBox="0 0 2000 2000" fill="none" xmlns="http://www.w3.org/2000/svg">
<g clip-path="url(#clip0_1070_2)">
<rect width="2000" height="2000" fill="#333333"/>
<path d="M2000 0H0V2000H2000V0Z" fill="#224A5C"/>
<path d="M1000.17 1662.17C1368.08 1662.17 1666.33 1364.14 1666.33 996.502C1666.33 628.864 1368.08 330.835 1000.17 330.835C632.253 330.835 334 628.864 334 996.502C334 1364.14 632.253 1662.17 1000.17 1662.17Z" fill="white"/>
<path d="M1000.24 1526.47C1291.42 1526.47 1527.47 1290.65 1527.47 999.737C1527.47 708.828 1291.42 473 1000.24 473C709.052 473 473 708.828 473 999.737C473 1290.65 709.052 1526.47 1000.24 1526.47Z" fill="#224A5C"/>
<path d="M1118.9 1031.94L1076.85 989.888C1081.2 967.171 1074.68 945.904 1057.28 926.088C1039.88 906.271 1017.4 898.538 989.85 902.888L947.8 860.838C956.017 856.971 964.354 854.071 972.813 852.138C981.271 850.204 990.333 849.238 1000 849.238C1036.25 849.238 1067.06 861.925 1092.44 887.3C1117.81 912.675 1130.5 943.488 1130.5 979.738C1130.5 989.404 1129.53 998.467 1127.6 1006.93C1125.67 1015.38 1122.77 1023.72 1118.9 1031.94ZM1211.7 1123.29L1169.65 1082.69C1188.02 1068.67 1204.33 1053.33 1218.59 1036.65C1232.85 1019.98 1245.05 1001 1255.2 979.738C1231.03 930.921 1196.35 892.133 1151.16 863.375C1105.97 834.617 1055.58 820.238 1000 820.238C985.983 820.238 972.208 821.204 958.675 823.138C945.142 825.071 931.85 827.971 918.8 831.838L873.85 786.888C893.667 778.671 913.967 772.508 934.75 768.4C955.533 764.292 977.283 762.238 1000 762.238C1072.98 762.238 1137.99 782.417 1195.03 822.775C1252.06 863.133 1293.38 915.454 1319 979.738C1307.88 1008.25 1293.26 1034.72 1275.14 1059.13C1257.01 1083.53 1235.87 1104.92 1211.7 1123.29ZM1226.2 1301.64L1104.4 1181.29C1087.48 1186.6 1070.45 1190.59 1053.29 1193.25C1036.13 1195.91 1018.37 1197.24 1000 1197.24C927.017 1197.24 862.008 1177.06 804.975 1136.7C747.942 1096.34 706.617 1044.02 681 979.738C691.15 954.121 703.958 930.317 719.425 908.325C734.892 886.333 752.533 866.638 772.35 849.238L692.6 768.038L733.2 727.438L1266.8 1261.04L1226.2 1301.64ZM812.95 889.838C798.933 902.404 786.125 916.179 774.525 931.163C762.925 946.146 753.017 962.338 744.8 979.738C768.967 1028.55 803.646 1067.34 848.838 1096.1C894.029 1124.86 944.417 1139.24 1000 1139.24C1009.67 1139.24 1019.09 1138.63 1028.28 1137.43C1037.46 1136.22 1046.88 1134.89 1056.55 1133.44L1030.45 1105.89C1025.13 1107.34 1020.06 1108.43 1015.23 1109.15C1010.39 1109.88 1005.32 1110.24 1000 1110.24C963.75 1110.24 932.938 1097.55 907.563 1072.18C882.188 1046.8 869.5 1015.99 869.5 979.738C869.5 974.421 869.863 969.346 870.588 964.513C871.313 959.679 872.4 954.604 873.85 949.288L812.95 889.838Z" fill="#AABDCF"/>
</g>
<defs>
<clipPath id="clip0_1070_2">
<rect width="2000" height="2000" fill="white"/>
</clipPath>
</defs>
</svg>
